<svg xmlns="http://www.w3.org/2000/svg" xmlns:xlink="http://www.w3.org/1999/xlink" viewBox="0 0 163.7 40"><path d="M48.2 31.6v-5.8h.4v2.6h3.2v-2.6h.4v5.8h-.4v-2.8h-3.2v2.8h-.4zM55.6 28.7c0-1.6.4-2.9 2.4-2.9 1.9 0 2.4 1.3 2.4 2.9 0 1.6-.4 3-2.4 3-1.9 0-2.4-1.4-2.4-3zm.5 0c0 1.3.3 2.6 1.9 2.6 1.6 0 1.9-1.3 1.9-2.6s-.3-2.5-1.9-2.5c-1.6 0-1.9 1.2-1.9 2.5zM66.4 30.9l2.2-5h.6v5.8h-.4v-4.9l-2.1 4.9h-.3l-2.1-4.9v4.9h-.4v-5.8h.6l1.9 5zM75.4 30.9l2.2-5h.6v5.8h-.4v-4.9l-2.1 4.9h-.3l-2.1-4.9v4.9h-.4v-5.8h.6l1.9 5zM84.8 31.6v-5.8h.4v5.8h-.4zM88.7 31.6v-5.8h.5l3.3 4.9v-4.9h.4v5.8h-.4l-3.3-4.9v4.9h-.5zM98.2 26.3v5.4h-.4v-5.4h-1.7v-.4h3.8v.4h-1.7zM106.5 26.3h-3v2.2h2.6v.4h-2.6v2.4h3.1v.4H103v-5.8h3.5v.4zM113.4 31.6l-1.5-2.4h-1.6v2.4h-.5v-5.8h2.3c1.1 0 1.7.8 1.7 1.7 0 .8-.5 1.5-1.4 1.6l1.6 2.5h-.6zm-3.1-2.8h1.7c.8 0 1.3-.5 1.3-1.3 0-.7-.5-1.3-1.2-1.3h-1.8v2.6zM120.6 30H118l-.6 1.6h-.4l2.1-5.8h.6l2 5.8h-.5l-.6-1.6zm-1.3-3.6l-1.2 3.3h2.4l-1.2-3.3zM126.9 25.8c.6 0 1.2.1 1.9.3l-.1.4c-.9-.2-1.3-.3-1.8-.3-1.6 0-1.9 1.2-1.9 2.5 0 1.4.3 2.6 1.9 2.6.5 0 .9 0 1.8-.3l.1.4c-.7.2-1.3.3-1.9.3-1.9 0-2.4-1.4-2.4-3s.5-2.9 2.4-2.9zM134 26.3v5.4h-.4v-5.4h-1.7v-.4h3.8v.4H134zM138.8 31.6v-5.8h.5v5.8h-.5zM144.8 31.1l1.8-5.3h.5l-2 5.8h-.6l-2.1-5.8h.5l1.9 5.3zM153.8 26.3h-3v2.2h2.6v.4h-2.6v2.4h3.1v.4h-3.5v-5.8h3.5v.4z"/><g><defs><circle id="a" cx="20" cy="20" r="20"/></defs><linearGradient id="b" gradientUnits="userSpaceOnUse" x1="0" y1="20" x2="40" y2="20"><stop offset="0" stop-color="#ff006e"/><stop offset="1" stop-color="#b82f67"/></linearGradient><use xlink:href="#a" overflow="visible" fill="url(#b)"/></g><g><path d="M54.5 20.1l-2.2-3.8-2 3.8h-3l3.4-6-3.2-5.6h3.1l1.9 3.4 1.8-3.4h3.1l-3.2 5.6 3.5 6h-3.2zM63.5 8.6l2.5 7.1 2.3-7.1H72v11.6h-2.7v-6.7l-2.4 6.7h-2l-2.3-6.7v6.7H60V8.6h3.5zM74.9 8.6h2.7v9.2h5.3v2.4h-8V8.6zM93.5 20.3c-1.5 0-3-.2-4.5-.7l.5-2.2c1.5.3 2.8.5 4 .5.5 0 .9-.1 1.2-.3.3-.2.5-.4.5-.8 0-.1 0-.2-.1-.3 0-.1-.1-.2-.2-.3-.1-.1-.2-.1-.3-.2-.1-.1-.2-.1-.4-.2s-.3-.1-.5-.2c-.1 0-.3-.1-.6-.2-.2-.1-.4-.1-.6-.2-2.3-.7-3.4-1.9-3.4-3.7 0-1.1.4-2 1.2-2.5s1.8-.8 3.1-.8 2.7.2 4.2.7l-.6 2.2c-1.5-.3-2.7-.5-3.6-.5-.5 0-.8.1-1.1.3s-.3.6-.3.9c0 .4.2.6.6.8.4.2 1 .4 1.9.6 2.3.5 3.5 1.7 3.5 3.5 0 1.2-.4 2.1-1.2 2.7s-2 .9-3.3.9zM103.3 20.1h-2.7V8.6h2.7v11.5zM114.2 11h-3v9.2h-2.7V11h-3V8.6h8.6V11zM124.6 8.6V11h-5.3v2h4.6v2.4h-4.6v2.4h5.4v2.4h-8.1V8.6h8zM131 8.6l2.5 7.1 2.3-7.1h3.6v11.6h-2.7v-6.7l-2.4 6.7h-2l-2.3-6.7v6.7h-2.6V8.6h3.6zM149.2 20.1l-.7-2.4h-3.3l-.7 2.4h-2.9l3.6-11.6h3.3l3.6 11.6h-2.9zm-2.3-8.2l-1.1 3.6h2.2l-1.1-3.6zM159.5 16.3h-2.3v3.8h-2.7V8.6h5c1.2 0 2.2.3 2.9 1 .7.7 1.1 1.6 1.1 2.8s-.4 2.1-1.1 2.8c-.7.8-1.7 1.1-2.9 1.1zm-2.3-5.3v2.9h2c1 0 1.5-.5 1.5-1.5s-.5-1.5-1.5-1.5h-2z"/></g><path d="M25.6 24.1c-.2 0-.4 0-.7.1l-1.7-3.8h1.4c1.5 0 2.7-1.2 2.7-2.7v-6.5c0-1.5-1.2-2.7-2.7-2.7h-9.3c-1.5 0-2.7 1.2-2.7 2.7v6.5c0 1.5 1.2 2.7 2.7 2.7h1.4L15 24.1c-.2 0-.4-.1-.7-.1-2.1 0-3.7 1.7-3.7 3.7 0 2.1 1.7 3.7 3.7 3.7 2.1 0 3.7-1.7 3.7-3.7 0-1.2-.5-2.2-1.4-2.9l2.1-4.6H21l2.1 4.6c-.8.7-1.4 1.7-1.4 2.9 0 2.1 1.7 3.7 3.7 3.7 2.1 0 3.7-1.7 3.7-3.7.2-2-1.4-3.6-3.5-3.6z" fill="#fff"/></svg>