<svg xmlns="http://www.w3.org/2000/svg" xmlns:xlink="http://www.w3.org/1999/xlink" viewBox="0 0 155 50"><path d="M48.2 36.6v-5.8h.4v2.6h3.2v-2.6h.4v5.8h-.4v-2.8h-3.2v2.8h-.4zM55.6 33.7c0-1.6.4-2.9 2.4-2.9 1.9 0 2.4 1.3 2.4 2.9 0 1.6-.4 3-2.4 3-1.9 0-2.4-1.4-2.4-3zm.5 0c0 1.3.3 2.6 1.9 2.6 1.6 0 1.9-1.3 1.9-2.6s-.3-2.5-1.9-2.5c-1.6-.1-1.9 1.2-1.9 2.5zM66.4 35.9l2.2-5h.6v5.8h-.4v-4.9l-2.1 4.9h-.3l-2.1-4.9v4.9h-.4v-5.8h.6l1.9 5zM75.4 35.9l2.2-5h.6v5.8h-.4v-4.9l-2.1 4.9h-.3l-2.1-4.9v4.9h-.4v-5.8h.6l1.9 5zM84.8 36.6v-5.8h.4v5.8h-.4zM88.7 36.6v-5.8h.5l3.3 4.9v-4.9h.4v5.8h-.4l-3.3-4.9v4.9h-.5zM98.2 31.2v5.4h-.4v-5.4h-1.7v-.4h3.8v.4h-1.7zM106.5 31.2h-3v2.2h2.6v.4h-2.6v2.4h3.1v.4H103v-5.8h3.5v.4zM113.4 36.6l-1.5-2.4h-1.6v2.4h-.5v-5.8h2.3c1.1 0 1.7.8 1.7 1.7 0 .8-.5 1.5-1.4 1.6l1.6 2.5h-.6zm-3.1-2.8h1.7c.8 0 1.3-.5 1.3-1.3 0-.7-.5-1.3-1.2-1.3h-1.8v2.6zM120.6 35H118l-.6 1.6h-.4l2.1-5.8h.6l2 5.8h-.5l-.6-1.6zm-1.3-3.7l-1.2 3.3h2.4l-1.2-3.3zM126.9 30.8c.6 0 1.2.1 1.9.3l-.1.4c-.9-.2-1.3-.3-1.8-.3-1.6 0-1.9 1.2-1.9 2.5 0 1.4.3 2.6 1.9 2.6.5 0 .9 0 1.8-.3l.1.4c-.7.2-1.3.3-1.9.3-1.9 0-2.4-1.4-2.4-3s.5-2.9 2.4-2.9zM134 31.2v5.4h-.4v-5.4h-1.7v-.4h3.8v.4H134zM138.8 36.6v-5.8h.5v5.8h-.5zM144.8 36.1l1.8-5.3h.5l-2 5.8h-.6l-2.1-5.8h.5l1.9 5.3zM153.8 31.2h-3v2.2h2.6v.4h-2.6v2.4h3.1v.4h-3.5v-5.8h3.5v.4z"/><g><defs><circle id="a" cx="20" cy="25" r="20"/></defs><linearGradient id="b" gradientUnits="userSpaceOnUse" x1="0" y1="24.963" x2="40" y2="24.963"><stop offset="0" stop-color="#ff006e"/><stop offset="1" stop-color="#b82f67"/></linearGradient><use xlink:href="#a" overflow="visible" fill="url(#b)"/></g><g><path d="M50.4 25.1h-2.7V13.5h2.7v11.6zM53.1 19.2c0-.9.1-1.6.2-2.3.2-.7.4-1.3.8-1.8s.9-1 1.6-1.3c.7-.3 1.6-.4 2.6-.4 1.4 0 2.8.2 4.2.7l-.5 2.2c-1.5-.3-2.6-.5-3.4-.5-.9 0-1.6.3-2 .9-.4.6-.6 1.4-.6 2.6 0 1.2.2 2.1.6 2.7s1.1.9 2 .9c.8 0 1.9-.2 3.4-.5l.6 2.2c-1.5.4-2.9.7-4.2.7-3.6 0-5.3-2-5.3-6.1zM69.7 25.3c-3.5 0-5.3-2-5.3-6 0-.9.1-1.6.2-2.3.2-.7.4-1.3.8-1.8s.9-1 1.6-1.3c.7-.3 1.6-.4 2.6-.4s1.8.1 2.5.4c.7.3 1.2.7 1.6 1.3s.7 1.2.8 1.8c.2.7.2 1.4.2 2.3.3 4-1.5 6-5 6zm1.9-8.8c-.3-.6-1-.9-1.9-.9-.9 0-1.6.3-1.9.9s-.5 1.5-.5 2.7c0 .6 0 1.1.1 1.5l.3 1.2c.2.4.4.6.7.8.3.2.7.3 1.2.3s.9-.1 1.2-.3c.3-.2.6-.5.7-.8.2-.4.3-.7.3-1.2.1-.4.1-.9.1-1.5.2-1.2.1-2.1-.3-2.7zM80.2 25.1h-2.6V13.5h2.7l4.1 6.6v-6.6H87v11.6h-2.7l-4.1-6.3v6.3zM94.2 25.3c-1.5 0-3-.2-4.5-.7l.5-2.2c1.5.3 2.8.5 4 .5.5 0 .9-.1 1.2-.3.3-.2.5-.4.5-.8 0-.1 0-.2-.1-.3 0-.1-.1-.2-.2-.3-.1-.1-.2-.1-.3-.2-.1-.1-.2-.1-.4-.2s-.3-.1-.5-.2c-.1 0-.3-.1-.6-.2-.2-.1-.4-.1-.6-.2-2.3-.7-3.4-1.9-3.4-3.7 0-1.1.4-2 1.2-2.5s1.8-.8 3.1-.8 2.7.2 4.2.7l-.6 2.2c-1.5-.3-2.7-.5-3.6-.5-.5 0-.8.1-1.1.3s-.4.4-.4.7c0 .4.2.6.6.8.4.2 1 .4 1.9.6 2.3.5 3.5 1.7 3.5 3.5 0 1.2-.4 2.1-1.2 2.7s-1.9 1.1-3.2 1.1z"/></g><g><path d="M31.4 21.6c-.2-.5-.6-.8-1.1-.8l-6.6-.6-2.6-6.2c-.2-.5-.6-.7-1.1-.7-.5 0-.9.3-1.1.7l-2.6 6.1-6.6.6c-.5 0-.9.4-1.1.8-.2.5 0 1 .4 1.3l5 4.4-1.5 6.5c-.1.5.1 1 .5 1.3.2.2.5.2.7.2.2 0 .4-.1.6-.2l5.7-3.4 5.7 3.4c.4.3.9.2 1.3-.1.4-.3.6-.8.5-1.3L26 27.1l5-4.4c.5-.1.6-.6.4-1.1zm0 0" fill="#fff"/></g></svg>