<?xml version="1.0" encoding="utf-8"?>
<!-- Generator: Adobe Illustrator 25.3.1, SVG Export Plug-In . SVG Version: 6.00 Build 0)  -->
<svg version="1.1" id="Layer_1" xmlns="http://www.w3.org/2000/svg" xmlns:xlink="http://www.w3.org/1999/xlink" x="0px" y="0px"
	 viewBox="0 0 100 100" style="enable-background:new 0 0 100 100;" xml:space="preserve">
<g>
	<g>
		<path d="M99.7,38.3c-0.7-2-2.5-3.5-4.6-3.7L66.3,32L54.9,5.3c-0.8-2-2.8-3.2-4.9-3.2c-2.1,0-4,1.3-4.9,3.2L33.7,32L4.8,34.6
			c-2.1,0.2-3.9,1.6-4.6,3.7c-0.7,2-0.1,4.2,1.6,5.6l21.8,19.1l-6.4,28.3c-0.5,2.1,0.3,4.2,2.1,5.5c0.9,0.7,2,1,3.1,1
			c0.9,0,1.9-0.3,2.7-0.8L50,82.3l24.9,14.9c1.8,1.1,4.1,1,5.8-0.3c1.7-1.3,2.5-3.4,2.1-5.5l-6.4-28.3l21.8-19.1
			C99.8,42.5,100.4,40.3,99.7,38.3L99.7,38.3z M99.7,38.3"/>
	</g>
</g>
</svg>
