<?xml version="1.0" encoding="utf-8"?>
<!-- Generator: Adobe Illustrator 25.3.1, SVG Export Plug-In . SVG Version: 6.00 Build 0)  -->
<svg version="1.1" id="Layer_1" xmlns="http://www.w3.org/2000/svg" xmlns:xlink="http://www.w3.org/1999/xlink" x="0px" y="0px"
	 viewBox="0 0 100 100" style="enable-background:new 0 0 100 100;" xml:space="preserve">
<style type="text/css">
	.st0{fill:#FFFFFF;}
</style>
<g>
	<defs>
		<circle id="SVGID_1_" cx="50" cy="50" r="50"/>
	</defs>
	<linearGradient id="SVGID_2_" gradientUnits="userSpaceOnUse" x1="0" y1="50" x2="100" y2="50">
		<stop  offset="0" style="stop-color:#FF006E"/>
		<stop  offset="1" style="stop-color:#B82F67"/>
	</linearGradient>
	<use xlink:href="#SVGID_1_"  style="overflow:visible;fill:url(#SVGID_2_);"/>
	<clipPath id="SVGID_3_">
		<use xlink:href="#SVGID_1_"  style="overflow:visible;"/>
	</clipPath>
</g>
<g>
	<g>
		<path class="st0" d="M78.6,41.6c-0.4-1.2-1.4-2-2.6-2.1L59.4,38l-6.6-15.4c-0.5-1.1-1.6-1.9-2.8-1.9c-1.2,0-2.3,0.7-2.8,1.9
			L40.6,38L24,39.5c-1.2,0.1-2.3,0.9-2.6,2.1c-0.4,1.2,0,2.4,0.9,3.2l12.6,11l-3.7,16.3c-0.3,1.2,0.2,2.4,1.2,3.2
			c0.5,0.4,1.2,0.6,1.8,0.6c0.5,0,1.1-0.1,1.6-0.4L50,66.9l14.3,8.6c1,0.6,2.4,0.6,3.4-0.1c1-0.7,1.5-2,1.2-3.2l-3.7-16.3l12.6-11
			C78.6,44,79,42.7,78.6,41.6L78.6,41.6z M78.6,41.6"/>
	</g>
</g>
</svg>
